# xmcd
#
# Track frame offsets:
#	150
#	21814
#	43739
#	59393
#	76660
#	92774
#	101512
#	113110
#	126191
#	139018
#	153795
#	162716
#
# Disc length: 2307 seconds
#
# Revision: 1
# Processed by: cddbd v1.5.2PL0 Copyright (c) Steve Scherf et al.
# Submitted via: audiograbber 1.83.01
#
DISCID=9409010c
DTITLE=Steph Brett and the Sugar Fed Leopards - Blue Shining Star
DYEAR=2012
DGENRE=Blues alt country
TTITLE0=Train Song
TTITLE1=Devil Took A Chicken
TTITLE2=Birds Nest
TTITLE3=Nashville Insomniac 
TTITLE4=La Sombre
TTITLE5=HooDoo Lady
TTITLE6=Rolling Green
TTITLE7=Writing a Letter
TTITLE8=Amelie
TTITLE9=Bird Song
TTITLE10=Bethanys Beans
TTITLE11=More Ways Of Crying
EXTD=
EXTT0=
EXTT1=
EXTT2=
EXTT3=
EXTT4=
EXTT5=
EXTT6=
EXTT7=
EXTT8=
EXTT9=
EXTT10=
EXTT11=
PLAYORDER=
